<svg width="24" height="24" viewBox="0 0 24 24" fill="none" xmlns="http://www.w3.org/2000/svg">
<path d="M12.0015 5.00156V7.00156H6.32025L4.17647 12.0016H22.0015V21.0016C22.0015 21.5539 21.5538 22.0016 21.0015 22.0016H20.0015C19.4492 22.0016 19.0015 21.5539 19.0015 21.0016V20.0016H5.00146V21.0016C5.00146 21.5539 4.55374 22.0016 4.00146 22.0016H3.00146C2.44918 22.0016 2.00146 21.5539 2.00146 21.0016V12.0016L4.48197 6.21372C4.79713 5.47835 5.5202 5.00156 6.32025 5.00156H9.00146H12.0015ZM6.50146 14.0016C5.67303 14.0016 5.00146 14.6732 5.00146 15.5016C5.00146 16.33 5.67303 17.0016 6.50146 17.0016C7.3299 17.0016 8.00146 16.33 8.00146 15.5016C8.00146 14.6732 7.3299 14.0016 6.50146 14.0016ZM17.5015 14.0016C16.6731 14.0016 16.0015 14.6732 16.0015 15.5016C16.0015 16.33 16.6731 17.0016 17.5015 17.0016C18.3299 17.0016 19.0015 16.33 19.0015 15.5016C19.0015 14.6732 18.3299 14.0016 17.5015 14.0016Z" fill="#315DfB"/>
<path d="M19.5 4.09091H23L18.5 10V5.90909H15L19.5 0V4.09091Z" fill="#64656A"/>
</svg>
