<svg width="55" height="56" viewBox="0 0 55 56" fill="none" xmlns="http://www.w3.org/2000/svg">
<g filter="url(#filter0_i_5005_2565)">
<path fill-rule="evenodd" clip-rule="evenodd" d="M27.1958 49.1099L40.0181 36.2878C47.0994 29.2063 47.0994 17.7248 40.0181 10.6433C32.9366 3.56177 21.4551 3.56177 14.3736 10.6433C7.29212 17.7248 7.29212 29.2063 14.3736 36.2878L27.1958 49.1099ZM28.6284 16.1275H21.7376V33.7562H25.39V28.0098H28.5432C29.8742 28.0098 31.0186 27.7623 31.9764 27.2672C32.9422 26.764 33.6767 26.07 34.1799 25.1853C34.6913 24.2925 34.9469 23.2577 34.9469 22.0808C34.9469 20.9121 34.6994 19.8773 34.2043 18.9764C33.7092 18.0754 32.9828 17.3774 32.0251 16.8823C31.0754 16.3791 29.9432 16.1275 28.6284 16.1275ZM25.39 25.0636H27.971C28.6771 25.0636 29.2696 24.9419 29.7484 24.6984C30.2354 24.4468 30.5966 24.0978 30.832 23.6514C31.0673 23.205 31.185 22.6815 31.185 22.0808C31.185 21.4802 31.0673 20.9608 30.832 20.5225C30.5966 20.0761 30.2354 19.7352 29.7484 19.4999C29.2696 19.2564 28.673 19.1346 27.9588 19.1346H25.39V25.0636Z" fill="#093AEE"/>
</g>
<defs>
<filter id="filter0_i_5005_2565" x="9.0625" y="5.33215" width="36.2666" height="47.9623" filterUnits="userSpaceOnUse" color-interpolation-filters="sRGB">
<feFlood flood-opacity="0" result="BackgroundImageFix"/>
<feBlend mode="normal" in="SourceGraphic" in2="BackgroundImageFix" result="shape"/>
<feColorMatrix in="SourceAlpha" type="matrix" values="0 0 0 0 0 0 0 0 0 0 0 0 0 0 0 0 0 0 127 0" result="hardAlpha"/>
<feOffset dy="4.18462"/>
<feGaussianBlur stdDeviation="2.09231"/>
<feComposite in2="hardAlpha" operator="arithmetic" k2="-1" k3="1"/>
<feColorMatrix type="matrix" values="0 0 0 0 0 0 0 0 0 0 0 0 0 0 0 0 0 0 0.2 0"/>
<feBlend mode="normal" in2="shape" result="effect1_innerShadow_5005_2565"/>
</filter>
</defs>
</svg>
