<svg width="24" height="24" viewBox="0 0 24 24" fill="none" xmlns="http://www.w3.org/2000/svg">
<path fill-rule="evenodd" clip-rule="evenodd" d="M16.2426 14.2426L12 18.4853L7.75736 14.2426C5.41421 11.8995 5.41421 8.10051 7.75736 5.75736C10.1005 3.41421 13.8995 3.41421 16.2426 5.75736C18.5858 8.10051 18.5858 11.8995 16.2426 14.2426ZM12 21.3137L17.6569 15.6569C20.781 12.5327 20.781 7.46734 17.6569 4.34315C14.5327 1.21895 9.46734 1.21895 6.34315 4.34315C3.21895 7.46734 3.21895 12.5327 6.34315 15.6569L12 21.3137ZM19 24V22H5V24H19ZM12.7744 6.22266H9.73438V14H11.3457V11.4648H12.7368C13.3241 11.4648 13.8289 11.3556 14.2515 11.1372C14.6776 10.9152 15.0016 10.609 15.2236 10.2188C15.4492 9.82487 15.562 9.36833 15.562 8.84912C15.562 8.3335 15.4528 7.87695 15.2344 7.47949C15.016 7.08203 14.6955 6.77409 14.2729 6.55566C13.854 6.33366 13.3545 6.22266 12.7744 6.22266ZM11.3457 10.165V7.54932H12.479C12.7941 7.54932 13.0573 7.60303 13.2686 7.71045C13.4834 7.81429 13.6427 7.96468 13.7466 8.16162C13.8504 8.35498 13.9023 8.58415 13.9023 8.84912C13.9023 9.1141 13.8504 9.34505 13.7466 9.54199C13.6427 9.73893 13.4834 9.8929 13.2686 10.0039C13.0573 10.1113 12.7959 10.165 12.4844 10.165H11.3457Z" fill="#64656A"/>
</svg>
