<svg width="24" height="24" viewBox="0 0 24 24" fill="none" xmlns="http://www.w3.org/2000/svg">
<path d="M11.0108 21C11.0108 20.1715 10.3392 19.5 9.51074 19.5C8.68232 19.5 8.01074 20.1715 8.01074 21H3.01074C2.45846 21 2.01074 20.5522 2.01074 20V4C2.01074 3.44772 2.45846 3 3.01074 3H8.01074C8.01074 3.82843 8.68232 4.5 9.51074 4.5C10.3392 4.5 11.0108 3.82843 11.0108 3H21.0108C21.5631 3 22.0108 3.44772 22.0108 4V9.5C20.6301 9.5 19.5108 10.6193 19.5108 12C19.5108 13.3807 20.6301 14.5 22.0108 14.5V20C22.0108 20.5522 21.5631 21 21.0108 21H11.0108ZM9.51074 10.5C10.3392 10.5 11.0108 9.82843 11.0108 9C11.0108 8.17158 10.3392 7.5 9.51074 7.5C8.68232 7.5 8.01074 8.17158 8.01074 9C8.01074 9.82843 8.68232 10.5 9.51074 10.5ZM9.51074 16.5C10.3392 16.5 11.0108 15.8284 11.0108 15C11.0108 14.1715 10.3392 13.5 9.51074 13.5C8.68232 13.5 8.01074 14.1715 8.01074 15C8.01074 15.8284 8.68232 16.5 9.51074 16.5Z" fill="#315DfB"/>
</svg>
