<svg width="24" height="24" viewBox="0 0 24 24" fill="none" xmlns="http://www.w3.org/2000/svg">
<path fill-rule="evenodd" clip-rule="evenodd" d="M11.999 21.3131L17.6559 15.6563C20.78 12.5321 20.78 7.46673 17.6559 4.34254C14.5317 1.21834 9.46636 1.21834 6.34217 4.34254C3.21797 7.46673 3.21797 12.5321 6.34217 15.6563L11.999 21.3131ZM18.999 23.9994V21.9994H4.99902V23.9994H18.999ZM12.6313 6.76189H9.59121V14.5392H11.2025V12.0041H12.5937C13.1809 12.0041 13.6858 11.8949 14.1083 11.6764C14.5344 11.4544 14.8585 11.1483 15.0805 10.758C15.3061 10.3641 15.4188 9.90756 15.4188 9.38835C15.4188 8.87273 15.3096 8.41619 15.0912 8.01873C14.8728 7.62126 14.5523 7.31332 14.1298 7.0949C13.7108 6.87289 13.2113 6.76189 12.6313 6.76189ZM11.2025 10.7043V8.08855H12.3358C12.6509 8.08855 12.9141 8.14226 13.1254 8.24968C13.3402 8.35352 13.4996 8.50391 13.6034 8.70085C13.7073 8.89421 13.7592 9.12338 13.7592 9.38835C13.7592 9.65333 13.7073 9.88429 13.6034 10.0812C13.4996 10.2782 13.3402 10.4321 13.1254 10.5431C12.9141 10.6506 12.6527 10.7043 12.3412 10.7043H11.2025Z" fill="#315DfB"/>
</svg>
