<svg width="20" height="20" viewBox="0 0 20 20" fill="none" xmlns="http://www.w3.org/2000/svg">
<g id="Frame">
<path id="Subtract" fill-rule="evenodd" clip-rule="evenodd" d="M9.9987 17.7608L14.7128 13.0468C17.3162 10.4433 17.3162 6.22213 14.7128 3.61864C12.1093 1.01514 7.88815 1.01514 5.28466 3.61864C2.68116 6.22213 2.68116 10.4433 5.28466 13.0468L9.9987 17.7608ZM15.832 19.9993V18.3327H4.16536V19.9993H15.832ZM10.5256 5.63477H7.99219V12.1159H9.33496V10.0033H10.4942C10.9836 10.0033 11.4043 9.91224 11.7564 9.73022C12.1115 9.54522 12.3816 9.29009 12.5666 8.96484C12.7546 8.63661 12.8486 8.25616 12.8486 7.82349C12.8486 7.3938 12.7575 7.01335 12.5755 6.68213C12.3935 6.35091 12.1264 6.09429 11.7743 5.91227C11.4252 5.72727 11.009 5.63477 10.5256 5.63477ZM9.33496 8.92008V6.74032H10.2794C10.542 6.74032 10.7613 6.78507 10.9373 6.87459C11.1164 6.96113 11.2492 7.08645 11.3357 7.25057C11.4222 7.4117 11.4655 7.60267 11.4655 7.82349C11.4655 8.0443 11.4222 8.23676 11.3357 8.40088C11.2492 8.565 11.1164 8.69331 10.9373 8.78581C10.7613 8.87533 10.5435 8.92008 10.2839 8.92008H9.33496Z" fill="#84A2FF"/>
</g>
</svg>
