<svg width="24" height="24" viewBox="0 0 24 24" fill="none" xmlns="http://www.w3.org/2000/svg">
<path d="M2.00488 3.99982C2.00488 3.44753 2.4526 2.99982 3.00488 2.99982H21.0049C21.5572 2.99982 22.0049 3.44753 22.0049 3.99982V9.49982C20.6242 9.49982 19.5049 10.6191 19.5049 11.9998C19.5049 13.3805 20.6242 14.4998 22.0049 14.4998V19.9998C22.0049 20.5521 21.5572 20.9998 21.0049 20.9998H3.00488C2.4526 20.9998 2.00488 20.5521 2.00488 19.9998V3.99982ZM8.09024 18.9998C8.29615 18.4172 8.85177 17.9998 9.50488 17.9998C10.158 17.9998 10.7136 18.4172 10.9195 18.9998H20.0049V16.032C18.5232 15.2957 17.5049 13.7666 17.5049 11.9998C17.5049 10.2329 18.5232 8.70393 20.0049 7.96758V4.99982H10.9195C10.7136 5.58241 10.158 5.99982 9.50488 5.99982C8.85177 5.99982 8.29615 5.58241 8.09024 4.99982H4.00488V18.9998H8.09024ZM9.50488 10.9998C8.67646 10.9998 8.00488 10.3282 8.00488 9.49982C8.00488 8.67139 8.67646 7.99982 9.50488 7.99982C10.3333 7.99982 11.0049 8.67139 11.0049 9.49982C11.0049 10.3282 10.3333 10.9998 9.50488 10.9998ZM9.50488 15.9998C8.67646 15.9998 8.00488 15.3282 8.00488 14.4998C8.00488 13.6714 8.67646 12.9998 9.50488 12.9998C10.3333 12.9998 11.0049 13.6714 11.0049 14.4998C11.0049 15.3282 10.3333 15.9998 9.50488 15.9998Z" fill="#64656A"/>
</svg>
